<svg width="25" height="24" viewBox="0 0 25 24" fill="none" xmlns="http://www.w3.org/2000/svg">
<circle cx="12.5" cy="12" r="12" fill="#D02F44"/>
<mask id="mask0_3470_30165" style="mask-type:alpha" maskUnits="userSpaceOnUse" x="0" y="0" width="25" height="24">
<circle cx="12.5" cy="12" r="12" fill="#D02F44"/>
</mask>
<g mask="url(#mask0_3470_30165)">
<rect x="4.5" width="16" height="24" fill="white"/>
<path fill-rule="evenodd" clip-rule="evenodd" d="M14.5129 11.7014C14.348 11.8663 14.2511 11.8158 14.2996 11.5734L15.0714 7.71429L13.3571 8.57143L12.5 6L11.6429 8.57143L9.92857 7.71429L10.7004 11.5734C10.7475 11.809 10.6512 11.8655 10.4871 11.7014L9.37003 10.5843C9.20512 10.4194 8.9375 10.4196 8.76198 10.5952L8.21429 11.1429L6.5 10.2857L7.35714 12L6.80945 12.5477C6.63855 12.7186 6.63825 12.9954 6.79498 13.1521L9.07143 15.4286H11.6429L12.0714 18H12.9286L13.3571 15.4286H15.9286L18.205 13.1521C18.3679 12.9892 18.3661 12.7232 18.1906 12.5477L17.6429 12L18.5 10.2857L16.7857 11.1429L16.238 10.5952C16.0671 10.4243 15.7941 10.4202 15.63 10.5843L14.5129 11.7014Z" fill="#D02F44"/>
</g>
</svg>
