<svg width="24" height="24" viewBox="0 0 24 24" fill="none" xmlns="http://www.w3.org/2000/svg">
<path d="M17.6875 11.75C17.6875 12.1328 17.3867 12.4062 17.0312 12.4062H12.6562V16.7812C12.6562 17.1641 12.3555 17.4648 12 17.4648C11.6172 17.4648 11.3438 17.1641 11.3438 16.7812V12.4062H6.96875C6.58594 12.4062 6.3125 12.1328 6.3125 11.7773C6.3125 11.3945 6.58594 11.0938 6.96875 11.0938H11.3438V6.71875C11.3438 6.36328 11.6172 6.08984 12 6.08984C12.3555 6.08984 12.6562 6.36328 12.6562 6.71875V11.0938H17.0312C17.3867 11.0938 17.6875 11.3945 17.6875 11.75Z" fill="white" fill-opacity="0.6"/>
</svg>
