<svg width="24" height="24" viewBox="0 0 24 24" fill="none" xmlns="http://www.w3.org/2000/svg">
<path d="M10.4688 8.25C12.3828 8.25 14.2148 7.51172 15.582 6.14453L16.6211 5.10547C17.168 4.55859 18.125 4.94141 18.125 5.73438V9.67188C18.6172 9.91797 19 10.5742 19 11.3125C19 12.0781 18.6172 12.7344 18.125 12.9805V16.918C18.125 17.7109 17.168 18.0938 16.6211 17.5469L15.582 16.5078C14.2695 15.1953 12.5195 14.4297 10.6875 14.4023V17.2188C10.6875 18.0664 9.97656 18.75 9.15625 18.75H8.28125C7.43359 18.75 6.75 18.0664 6.75 17.2188V14.375C5.76562 14.375 5 13.6094 5 12.625V10C5 9.04297 5.76562 8.25 6.75 8.25H10.4688ZM16.8125 6.77344L16.5117 7.07422C14.9531 8.63281 12.875 9.50781 10.6875 9.5625V13.0898C12.875 13.1172 14.9531 14.0195 16.5117 15.5781L16.8125 15.8789V6.77344ZM8.0625 17.2188C8.0625 17.3555 8.14453 17.4375 8.28125 17.4375H9.15625C9.26562 17.4375 9.375 17.3555 9.375 17.2188V14.375H8.0625V17.2188ZM6.3125 10V12.625C6.3125 12.8711 6.50391 13.0625 6.75 13.0625H9.375V9.5625H6.75C6.50391 9.5625 6.3125 9.78125 6.3125 10Z" fill="white"/>
</svg>
