<svg width="24" height="24" viewBox="0 0 24 24" fill="none" xmlns="http://www.w3.org/2000/svg">
<path d="M9.8125 11.75C10.7695 11.75 11.5625 10.9844 11.5625 10C11.5625 9.04297 10.7695 8.25 9.8125 8.25C8.82812 8.25 8.0625 9.04297 8.0625 10C8.0625 10.9844 8.82812 11.75 9.8125 11.75ZM16.8125 11.0938H14.1875C13.8047 11.0938 13.5312 11.3945 13.5312 11.75C13.5312 12.1328 13.8047 12.4062 14.1875 12.4062H16.8125C17.168 12.4062 17.4688 12.1328 17.4688 11.75C17.4688 11.3945 17.168 11.0938 16.8125 11.0938ZM10.6875 12.625H8.9375C7.70703 12.625 6.75 13.6094 6.75 14.8125C6.75 15.0586 6.94141 15.25 7.1875 15.25H12.4375C12.6562 15.25 12.875 15.0586 12.875 14.8125C12.875 13.6094 11.8906 12.625 10.6875 12.625ZM16.8125 8.90625H14.1875C13.8047 8.90625 13.5312 9.20703 13.5312 9.5625C13.5312 9.94531 13.8047 10.2188 14.1875 10.2188H16.8125C17.168 10.2188 17.4688 9.94531 17.4688 9.5625C17.4688 9.20703 17.168 8.90625 16.8125 8.90625ZM18.125 5.625H5.875C4.89062 5.625 4.125 6.41797 4.125 7.375V16.125C4.125 17.1094 4.89062 17.875 5.875 17.875H18.125C19.082 17.875 19.875 17.1094 19.875 16.125V7.375C19.875 6.41797 19.082 5.625 18.125 5.625ZM18.5625 16.125C18.5625 16.3711 18.3438 16.5625 18.125 16.5625H5.875C5.62891 16.5625 5.4375 16.3711 5.4375 16.125V7.375C5.4375 7.15625 5.62891 6.9375 5.875 6.9375H18.125C18.3438 6.9375 18.5625 7.15625 18.5625 7.375V16.125Z" fill="white"/>
</svg>
