<svg width="24" height="24" viewBox="0 0 24 24" fill="none" xmlns="http://www.w3.org/2000/svg">
<path d="M12 4.75C15.8555 4.75 19 7.89453 19 11.75C19 15.6328 15.8555 18.75 12 18.75C8.11719 18.75 5 15.6328 5 11.75C5 7.89453 8.11719 4.75 12 4.75ZM12 17.4375C12.1914 17.4375 12.7109 17.2461 13.2852 16.125C13.5312 15.6328 13.7227 15.0586 13.8867 14.375H10.0859C10.25 15.0586 10.4414 15.6328 10.6875 16.125C11.2617 17.2461 11.7812 17.4375 12 17.4375ZM9.86719 13.0625H14.1055C14.1602 12.6523 14.1875 12.2148 14.1875 11.75C14.1875 11.3125 14.1602 10.875 14.1055 10.4375H9.86719C9.8125 10.875 9.8125 11.3125 9.8125 11.75C9.8125 12.2148 9.8125 12.6523 9.86719 13.0625ZM13.8867 9.125C13.7227 8.46875 13.5312 7.89453 13.2852 7.40234C12.7109 6.28125 12.1914 6.0625 12 6.0625C11.7812 6.0625 11.2617 6.28125 10.6875 7.40234C10.4414 7.89453 10.25 8.46875 10.0859 9.125H13.8867ZM15.418 10.4375C15.4727 10.875 15.5 11.3125 15.5 11.75C15.5 12.2148 15.4727 12.6523 15.418 13.0625H17.5234C17.6328 12.6523 17.6875 12.2148 17.6875 11.75C17.6875 11.3125 17.6328 10.875 17.5234 10.4375H15.418ZM14.3516 6.58203C14.7344 7.29297 15.0352 8.16797 15.2266 9.125H17.0312C16.457 8.00391 15.5 7.10156 14.3516 6.58203ZM9.62109 6.58203C8.47266 7.10156 7.51562 8.00391 6.94141 9.125H8.74609C8.9375 8.16797 9.23828 7.29297 9.62109 6.58203ZM6.3125 11.75C6.3125 12.2148 6.33984 12.6523 6.44922 13.0625H8.55469C8.5 12.6523 8.5 12.2148 8.5 11.75C8.5 11.3125 8.5 10.875 8.55469 10.4375H6.44922C6.33984 10.875 6.3125 11.3125 6.3125 11.75ZM17.0312 14.375H15.2266C15.0352 15.3594 14.7344 16.2344 14.3516 16.9453C15.5 16.4258 16.457 15.5234 17.0312 14.375ZM8.74609 14.375H6.94141C7.51562 15.5234 8.47266 16.4258 9.62109 16.9453C9.23828 16.2344 8.9375 15.3594 8.74609 14.375Z" fill="white"/>
</svg>
