<svg width="11" height="14" viewBox="0 0 11 14" fill="none" xmlns="http://www.w3.org/2000/svg">
<path d="M6.22656 1.75C3.34375 1.75 1 4.11719 1 7C1 9.90625 3.34375 12.25 6.22656 12.25C7.65625 12.25 8.94531 11.6875 9.88281 10.7734C10 10.6562 10.0234 10.4922 9.95312 10.3281C9.88281 10.1875 9.71875 10.1172 9.55469 10.1406C9.32031 10.1875 9.08594 10.1875 8.85156 10.1875C6.57812 10.1875 4.72656 8.35938 4.72656 6.0625C4.72656 4.53906 5.57031 3.17969 6.83594 2.47656C6.97656 2.40625 7.04688 2.24219 7 2.07812C6.97656 1.91406 6.83594 1.79688 6.67188 1.77344C6.53125 1.77344 6.36719 1.77344 6.22656 1.77344V1.75Z" fill="white"/>
</svg>
