<svg width="24" height="24" viewBox="0 0 24 24" fill="none" xmlns="http://www.w3.org/2000/svg">
<path d="M12 4.75C8.0625 4.75 5.10938 8.03125 5 11.75V13.2266C5 14.3477 5.875 15.25 6.99609 15.25H7.48828C8.03516 15.25 8.5 14.8125 8.5 14.2383V10.6016C8.5 10.0273 8.03516 9.5625 7.48828 9.5625H6.99609C6.88672 9.5625 6.80469 9.58984 6.72266 9.61719C7.57031 7.53906 9.62109 6.08984 12 6.08984C14.3516 6.08984 16.4023 7.53906 17.25 9.58984C17.168 9.58984 17.0859 9.5625 16.9766 9.5625H16.4844C15.9375 9.5625 15.5 10.0273 15.5 10.6016V14.2383C15.5 14.8125 15.9375 15.25 16.4844 15.25H16.9766C17.2227 15.25 17.4688 15.2227 17.6875 15.1406V15.6875C17.6875 16.3164 17.1953 16.7812 16.5938 16.7812H13.5586C13.3398 16.3984 12.9023 16.125 12.4375 16.125H11.5625C10.8242 16.125 10.25 16.7266 10.25 17.4375C10.25 18.1758 10.8242 18.75 11.5352 18.75H12.4375C12.9023 18.75 13.3398 18.5039 13.5586 18.0938H16.5938C17.9062 18.0938 19 17.0273 19 15.6875V11.75C18.8633 8.03125 15.9102 4.75 12 4.75ZM6.99609 10.875H7.1875V13.9375H6.99609C6.61328 13.9375 6.3125 13.6094 6.3125 13.2266V11.75C6.3125 11.6953 6.3125 11.6406 6.3125 11.5586C6.33984 11.1758 6.61328 10.875 6.99609 10.875ZM16.9766 13.9375H16.8125V10.875H16.9766C17.3594 10.875 17.6328 11.2031 17.6602 11.5586C17.6602 11.6406 17.6875 11.6953 17.6875 11.75V13.2266C17.6875 13.6094 17.3594 13.9375 16.9766 13.9375Z" fill="white"/>
</svg>
