<svg width="24" height="24" viewBox="0 0 24 24" fill="none" xmlns="http://www.w3.org/2000/svg">
<path d="M18.8906 13.0898L17.2227 6.30859C17.1133 5.89844 16.7578 5.625 16.375 5.625H7.625C7.21484 5.625 6.85938 5.89844 6.75 6.28125L5.08203 13.0898C5.02734 13.3633 5 13.6641 5 13.9375V16.125C5 17.1094 5.76562 17.875 6.75 17.875H17.25C18.207 17.875 19 17.1094 19 16.125V13.9375C19 13.6641 18.9453 13.3633 18.8906 13.0898ZM7.95312 6.9375H16.0195L17.4141 12.625H15.0625C14.7891 12.625 14.5703 12.7891 14.4609 13.0078L13.7773 14.375H10.1953L9.51172 13.0078C9.40234 12.7891 9.18359 12.625 8.9375 12.625H6.55859L7.95312 6.9375ZM17.6875 16.125C17.6875 16.3711 17.4688 16.5625 17.25 16.5625H6.75C6.50391 16.5625 6.3125 16.3711 6.3125 16.125V13.9375H8.52734L9.21094 15.332C9.32031 15.5508 9.53906 15.6875 9.8125 15.6875H14.1875C14.4336 15.6875 14.6523 15.5508 14.7617 15.332L15.4453 13.9375H17.6875V16.125Z" fill="white"/>
</svg>
