<svg width="24" height="24" viewBox="0 0 24 24" fill="none" xmlns="http://www.w3.org/2000/svg">
<path d="M10.25 17.2188C10.25 17.6016 9.94922 17.875 9.59375 17.875H7.625C6.14844 17.875 5 16.7266 5 15.25V8.25C5 6.80078 6.14844 5.625 7.625 5.625H9.59375C9.94922 5.625 10.25 5.92578 10.25 6.28125C10.25 6.66406 9.94922 6.9375 9.59375 6.9375H7.625C6.88672 6.9375 6.3125 7.53906 6.3125 8.25V15.25C6.3125 15.9883 6.88672 16.5625 7.625 16.5625H9.59375C9.94922 16.5625 10.25 16.8633 10.25 17.2188ZM18.8086 11.3125L15.3359 7.59375C15.0898 7.32031 14.6797 7.32031 14.4062 7.56641C14.1328 7.8125 14.1328 8.22266 14.3789 8.49609L16.8125 11.0938H10.0039C9.64844 11.0938 9.375 11.3945 9.375 11.75C9.375 12.1328 9.64844 12.4062 10.0039 12.4062H16.7852L14.3242 15.0312C14.0781 15.3047 14.0781 15.7148 14.3516 15.9609C14.5156 16.0703 14.6797 16.125 14.8164 16.125C14.9805 16.125 15.1445 16.0703 15.2812 15.9336L18.7539 12.2148C19.0547 11.9688 19.0547 11.5586 18.8086 11.3125Z" fill="white" fill-opacity="0.6"/>
</svg>
