<svg width="24" height="24" viewBox="0 0 24 24" fill="none" xmlns="http://www.w3.org/2000/svg">
<path d="M12.6562 11.9688C12.6562 12.3516 12.3555 12.625 12 12.625C11.6172 12.625 11.3438 12.3516 11.3438 11.9688V5.40625C11.3438 5.05078 11.6172 4.75 12 4.75C12.3555 4.75 12.6562 5.05078 12.6562 5.40625V11.9688ZM6.53125 11.9141C6.53125 14.8125 8.85547 17.1641 11.7812 17.1641C14.6797 17.1641 17.0312 14.8125 17.0312 11.9141C17.0312 10.1914 16.1836 8.66016 14.8711 7.70312C14.5977 7.48438 14.5156 7.07422 14.7344 6.77344C14.9531 6.5 15.3633 6.41797 15.6641 6.63672C17.2773 7.83984 18.3438 9.75391 18.3438 11.9141C18.3438 15.5508 15.3906 18.4766 11.7812 18.4766C8.14453 18.4766 5.21875 15.5508 5.21875 11.9141C5.21875 9.75391 6.25781 7.83984 7.87109 6.63672C8.17188 6.41797 8.58203 6.5 8.80078 6.77344C9.01953 7.07422 8.9375 7.48438 8.66406 7.70312C7.35156 8.66016 6.50391 10.1914 6.50391 11.9141H6.53125Z" fill="white"/>
</svg>
