<svg width="17" height="17" viewBox="0 0 17 17" fill="none" xmlns="http://www.w3.org/2000/svg">
<path d="M5.125 1.78125C4.90625 1.1875 4.25 0.90625 3.65625 1.0625L0.90625 1.8125C0.375 1.96875 0 2.4375 0 3C0 10.75 6.25 17 14 17C14.5625 17 15.0312 16.625 15.1875 16.0938L15.9375 13.3438C16.0938 12.75 15.8125 12.0938 15.2188 11.875L12.2188 10.625C11.7188 10.4062 11.125 10.5312 10.7812 10.9688L9.5 12.5C7.3125 11.4688 5.53125 9.6875 4.5 7.5L6.03125 6.21875C6.46875 5.875 6.59375 5.28125 6.375 4.78125L5.125 1.78125Z" fill="white"/>
</svg>
