<svg width="24" height="24" viewBox="0 0 24 24" fill="none" xmlns="http://www.w3.org/2000/svg">
<rect width="24" height="24" rx="12" fill="#01B976"/>
<path d="M12 6.5C11.5781 6.5 11.25 6.85156 11.25 7.25V7.71875C9.53906 8.04688 8.25 9.57031 8.25 11.375V11.8203C8.25 12.9219 7.82812 14 7.10156 14.8203L6.9375 15.0078C6.72656 15.2422 6.67969 15.5469 6.79688 15.8281C6.91406 16.0859 7.19531 16.25 7.5 16.25H16.5C16.7812 16.25 17.0625 16.0859 17.1797 15.8281C17.2969 15.5469 17.25 15.2422 17.0391 15.0078L16.875 14.8203C16.1484 14 15.75 12.9219 15.75 11.8203V11.375C15.75 9.57031 14.4609 8.04688 12.75 7.71875V7.25C12.75 6.85156 12.3984 6.5 12 6.5ZM13.0547 18.0781C13.3359 17.7969 13.5 17.3984 13.5 17H12H10.5C10.5 17.3984 10.6406 17.7969 10.9219 18.0781C11.2031 18.3594 11.6016 18.5 12 18.5C12.3984 18.5 12.7734 18.3594 13.0547 18.0781Z" fill="white"/>
</svg>
