<svg width="24" height="24" viewBox="0 0 24 24" fill="none" xmlns="http://www.w3.org/2000/svg">
<path d="M12 4.75C8.14453 4.75 5 7.89453 5 11.75C5 15.6328 8.14453 18.75 12 18.75C13.4492 18.75 14.7617 18.3398 15.8828 17.6016C16.1836 17.4102 16.2656 17 16.0742 16.6992C15.8555 16.3984 15.4453 16.3164 15.1445 16.5078C14.2422 17.1094 13.1758 17.4375 12 17.4375C8.88281 17.4375 6.3125 14.8945 6.3125 11.75C6.3125 8.63281 8.88281 6.0625 12 6.0625C14.0234 6.0625 15.8008 7.12891 16.8125 8.6875H15.2812C14.9258 8.6875 14.625 8.98828 14.625 9.34375C14.625 9.72656 14.9258 10 15.2812 10H18.3438C18.7266 10 19 9.72656 19 9.34375V6.28125C19 5.92578 18.7266 5.625 18.3438 5.625C17.9883 5.625 17.6875 5.92578 17.6875 6.28125V7.67578C16.4297 5.92578 14.3516 4.75 12 4.75ZM12 8.25C11.6445 8.25 11.3438 8.55078 11.3438 8.90625V11.5039L9.59375 13.2539C9.32031 13.5273 9.32031 13.9375 9.59375 14.1836C9.83984 14.457 10.25 14.457 10.4961 14.1836L12.4648 12.2148C12.6016 12.1055 12.6562 11.9414 12.6562 11.75V8.90625C12.6562 8.55078 12.3828 8.25 12 8.25Z" fill="white" fill-opacity="0.2"/>
</svg>
