<svg width="24" height="24" viewBox="0 0 24 24" fill="none" xmlns="http://www.w3.org/2000/svg">
<path d="M4.78125 4.75C4.39844 4.75 4.125 5.05078 4.125 5.40625C4.125 5.78906 4.39844 6.0625 4.78125 6.0625H6.01172C6.12109 6.0625 6.20312 6.14453 6.23047 6.25391L7.65234 13.6641C7.81641 14.5938 8.63672 15.25 9.56641 15.25H17.4688C17.8242 15.25 18.125 14.9766 18.125 14.5938C18.125 14.2383 17.8242 13.9375 17.4688 13.9375H9.56641C9.26562 13.9375 8.99219 13.7188 8.9375 13.418L8.77344 12.625H16.6758C17.5508 12.625 18.3438 12.0508 18.5625 11.1758L19.6836 7.01953C19.875 6.30859 19.3555 5.625 18.6445 5.625H7.40625C7.16016 5.10547 6.61328 4.75 6.01172 4.75H4.78125ZM7.70703 6.9375H18.3438L17.3047 10.8477C17.2227 11.1211 16.9766 11.3125 16.6758 11.3125H8.52734L7.70703 6.9375ZM8.9375 18.75C9.92188 18.75 10.5781 17.6562 10.0586 16.7812C9.8125 16.3984 9.40234 16.125 8.9375 16.125C7.92578 16.125 7.26953 17.2188 7.78906 18.0938C8.03516 18.5039 8.44531 18.75 8.9375 18.75ZM18.125 17.4375C18.125 16.4531 17.0312 15.7969 16.1562 16.3164C15.7461 16.5625 15.5 16.9727 15.5 17.4375C15.5 18.4492 16.5938 19.1055 17.4688 18.5859C17.8516 18.3398 18.125 17.9297 18.125 17.4375Z" fill="white"/>
</svg>
