<svg width="24" height="24" viewBox="0 0 24 24" fill="none" xmlns="http://www.w3.org/2000/svg">
<path d="M16.8125 12.8438L18.7812 14.8125L15.3633 18.2305C15.2812 18.3125 15.1992 18.3398 15.1172 18.3672L13.1484 18.75C12.9844 18.8047 12.8203 18.6406 12.875 18.4766L13.2578 16.5078C13.2852 16.4258 13.3125 16.3438 13.3945 16.2617L16.8125 12.8438ZM20.4492 11.75L19.875 11.1758C19.4922 10.793 18.8633 10.793 18.4805 11.1758L17.4414 12.2148L19.4102 14.1836L20.4492 13.1445C20.832 12.7617 20.832 12.1328 20.4492 11.75ZM13.0938 18.75H13.1211C13.0938 18.7773 13.0664 18.75 13.0391 18.75C13.0664 18.75 13.0938 18.75 13.0938 18.75ZM5.875 8.25C5.875 6.33594 7.43359 4.75 9.34766 4.75C11.2344 4.75 12.8477 6.33594 12.8477 8.25C12.8477 10.1914 11.2617 11.75 9.34766 11.75C7.40625 11.75 5.875 10.1914 5.875 8.25ZM7.1875 8.25C7.1875 9.48047 8.14453 10.4375 9.375 10.4375C10.5781 10.4375 11.5625 9.48047 11.5625 8.25C11.5625 7.04688 10.5781 6.0625 9.375 6.0625C8.14453 6.0625 7.1875 7.04688 7.1875 8.25ZM12.1641 17.4375H4.58984C4.78125 15.7148 6.25781 14.375 8.0625 14.375H10.6875C11.5898 14.375 12.4375 14.7578 13.0664 15.3594L13.9961 14.4297C13.1484 13.582 11.9727 13.0625 10.6875 13.0625H8.0625C5.38281 13.0625 3.25 15.2227 3.25 17.875C3.25 18.3672 3.63281 18.75 4.125 18.75H12.0273C11.9727 18.6133 11.9727 18.4492 12 18.2852L12.1641 17.4375Z" fill="white"/>
</svg>
