<svg width="24" height="24" viewBox="0 0 24 24" fill="none" xmlns="http://www.w3.org/2000/svg">
<path d="M11.9727 13.5C13.5586 13.5 14.8164 12.2422 14.8164 10.6562C14.8164 9.09766 13.5312 7.8125 11.9727 7.8125C10.4141 7.8125 9.15625 9.09766 9.15625 10.6562C9.12891 12.2422 10.4141 13.5 11.9727 13.5ZM11.9727 9.125C12.8203 9.125 13.5039 9.83594 13.5039 10.6562C13.5039 11.5039 12.8203 12.1875 11.9727 12.1875C11.1523 12.1875 10.4414 11.5039 10.4414 10.6562C10.4414 9.83594 11.1523 9.125 11.9727 9.125ZM17.25 9.125C18.4531 9.125 19.4375 8.16797 19.4375 6.9375C19.4375 5.73438 18.4531 4.75 17.25 4.75C16.0195 4.75 15.0625 5.73438 15.0625 6.9375C15.0625 8.16797 16.0195 9.125 17.25 9.125ZM13.3398 14.375H10.6328C8.47266 14.375 6.75 16.0156 6.75 18.0391C6.75 18.4492 7.07812 18.75 7.51562 18.75H16.457C16.8945 18.75 17.25 18.4492 17.25 18.0391C17.25 16.0156 15.5 14.375 13.3398 14.375ZM8.11719 17.4375C8.39062 16.4531 9.40234 15.6875 10.6055 15.6875H13.3398C14.543 15.6875 15.5547 16.4531 15.8555 17.4375H8.11719ZM18.3164 10H16.6484C16.293 10 15.9648 10.1094 15.6641 10.2461C15.6641 10.3828 15.6914 10.5195 15.6914 10.6562C15.6914 11.5859 15.3633 12.4336 14.7891 13.0625H20.2578C20.5312 13.0625 20.75 12.8438 20.75 12.5703C20.75 11.1484 19.6562 10 18.3164 10ZM8.25391 10.6562C8.25391 10.5195 8.28125 10.3828 8.30859 10.2461C8.00781 10.082 7.67969 10 7.32422 10H5.65625C4.31641 10 3.25 11.1484 3.25 12.5703C3.25 12.8438 3.44141 13.0625 3.71484 13.0625H9.18359C8.60938 12.4336 8.25391 11.5859 8.25391 10.6562ZM6.75 9.125C7.95312 9.125 8.9375 8.16797 8.9375 6.9375C8.9375 5.73438 7.95312 4.75 6.75 4.75C5.51953 4.75 4.5625 5.73438 4.5625 6.9375C4.5625 8.16797 5.51953 9.125 6.75 9.125Z" fill="white"/>
</svg>
